<svg width="12" height="11" viewBox="0 0 12 11" fill="none" xmlns="http://www.w3.org/2000/svg">
<path d="M6.5 5.29629L6.5 4.98475L7 4.98475L7 4.6732L7.5 4.6732L7.5 4.05011L8 4.05011L8 3.42701L8.5 3.42701L8.5 3.11547L9 3.11547L9 2.49237L9.5 2.49237L9.5 2.18083L10 2.18083L10 1.55773L10.5 1.55773L10.5 1.24619L11 1.24619L11 0.623093L11.5 0.623093L11.5 0.311546L12 0.311546L12 -4.76837e-07L10.5 -5.51863e-07L10.5 0.623093L10 0.623093L10 0.934639L9.5 0.934639L9.5 1.55773L9 1.55773L9 1.86928L8.5 1.86928L8.5 2.49237L8 2.49237L8 2.80392L7.5 2.80392L7.5 3.42701L7 3.42701L7 3.73856L6.5 3.73856L6.5 4.05011L6 4.05011L6 4.36165L5.5 4.36165L5.5 3.73856L5 3.73856L5 3.11547L4.5 3.11547L4.5 2.80392L4 2.80392L4 2.18083L3.5 2.18083L3.5 1.86928L3 1.86928L3 1.24619L2.5 1.24619L2.5 0.934639L2 0.934639L2 0.623092L1.5 0.623092L1.5 -1.00202e-06L8.09285e-07 -1.07704e-06L7.6168e-07 0.311545L0.500003 0.311545L0.500003 0.623092L1 0.623092L1 1.24619L1.5 1.24619L1.5 1.55773L2 1.55773L2 2.18083L2.5 2.18083L2.5 2.80392L3 2.80392L3 3.11547L3.5 3.11547L3.5 3.73856L4 3.73856L4 4.05011L4.5 4.05011L4.5 4.6732L5 4.6732L5 4.98475L5.5 4.98475L5.5 5.29629L6.5 5.29629Z" fill="#9BB3B3"/>
<path d="M6.5 5.2963L6.5 5.60784L7 5.60784L7 5.91939L7.5 5.91939L7.5 6.54248L8 6.54248L8 7.16558L8.5 7.16558L8.5 7.47712L9 7.47712L9 8.10022L9.5 8.10022L9.5 8.41176L10 8.41176L10 9.03486L10.5 9.03486L10.5 9.3464L11 9.3464L11 9.9695L11.5 9.9695L11.5 10.281L12 10.281L12 10.5926L10.5 10.5926L10.5 9.9695L10 9.9695L10 9.65795L9.5 9.65795L9.5 9.03486L9 9.03486L9 8.72331L8.5 8.72331L8.5 8.10022L8 8.10022L8 7.78867L7.5 7.78867L7.5 7.16558L7 7.16558L7 6.85403L6.5 6.85403L6.5 6.54248L6 6.54248L6 6.23094L5.5 6.23094L5.5 6.85403L5 6.85403L5 7.47712L4.5 7.47712L4.5 7.78867L4 7.78867L4 8.41176L3.5 8.41176L3.5 8.72331L3 8.72331L3 9.3464L2.5 9.3464L2.5 9.65795L2 9.65795L2 9.9695L1.5 9.9695L1.5 10.5926L8.09285e-07 10.5926L7.6168e-07 10.281L0.500003 10.281L0.500003 9.9695L1 9.9695L1 9.3464L1.5 9.3464L1.5 9.03486L2 9.03486L2 8.41176L2.5 8.41176L2.5 7.78867L3 7.78867L3 7.47712L3.5 7.47712L3.5 6.85403L4 6.85403L4 6.54248L4.5 6.54248L4.5 5.91939L5 5.91939L5 5.60784L5.5 5.60784L5.5 5.2963L6.5 5.2963Z" fill="#9BB3B3"/>
</svg>
