<svg width="29" height="26" viewBox="0 0 29 26" fill="none" xmlns="http://www.w3.org/2000/svg">
<path d="M13.2484 18.4401H15.7684V20.9601H18.2884V23.4801H15.7684V26H28.3684V23.4801H23.3284V18.4401H20.8084V15.9201H18.2884V8.36005H20.8084V5.84005H23.3284V3.32005H25.8484V0.800049H20.8084V5.84005H18.2884V8.36005H15.7684V10.88H13.2484V5.84005H10.7284V3.32005H13.2484V0.800049H3.16844V3.32005H5.68844V8.36005H8.20844V10.88H10.7284V15.9201H13.2484V18.4401ZM8.20844 18.4401V20.9601H5.68844V23.4801H0.648438V26H10.7284V23.4801H8.20844V20.9601H10.7284V18.4401H8.20844Z" fill="white"/>
</svg>
