<svg width="30" height="27" viewBox="0 0 30 27" fill="none" xmlns="http://www.w3.org/2000/svg">
<path d="M16.25 13.2407L16.25 12.4619L17.5 12.4619L17.5 11.683L18.75 11.683L18.75 10.1253L20 10.1253L20 8.56752L21.25 8.56752L21.25 7.78865L22.5 7.78865L22.5 6.23092L23.75 6.23092L23.75 5.45205L25 5.45205L25 3.89432L26.25 3.89432L26.25 3.11545L27.5 3.11545L27.5 1.55772L28.75 1.55772L28.75 0.77885L30 0.778851L30 -1.62125e-05L26.25 -1.64e-05L26.25 1.55772L25 1.55772L25 2.33658L23.75 2.33658L23.75 3.89432L22.5 3.89432L22.5 4.67319L21.25 4.67319L21.25 6.23092L20 6.23092L20 7.00979L18.75 7.00979L18.75 8.56752L17.5 8.56752L17.5 9.34639L16.25 9.34639L16.25 10.1253L15 10.1253L15 10.9041L13.75 10.9041L13.75 9.34639L12.5 9.34639L12.5 7.78865L11.25 7.78865L11.25 7.00979L10 7.00979L10 5.45205L8.75 5.45205L8.75 4.67319L7.50001 4.67319L7.50001 3.11545L6.25 3.11545L6.25 2.33658L5 2.33658L5 1.55772L3.75001 1.55772L3.75001 -1.75254e-05L2.02321e-06 -1.7713e-05L1.9042e-06 0.778849L1.25001 0.778849L1.25001 1.55772L2.50001 1.55772L2.50001 3.11545L3.75001 3.11545L3.75001 3.89432L5 3.89432L5 5.45205L6.25 5.45205L6.25 7.00979L7.5 7.00979L7.5 7.78865L8.75 7.78865L8.75 9.34639L10 9.34639L10 10.1253L11.25 10.1253L11.25 11.683L12.5 11.683L12.5 12.4619L13.75 12.4619L13.75 13.2407L16.25 13.2407Z" fill="white"/>
<path d="M16.25 13.2407L16.25 14.0196L17.5 14.0196L17.5 14.7985L18.75 14.7985L18.75 16.3562L20 16.3562L20 17.9139L21.25 17.9139L21.25 18.6928L22.5 18.6928L22.5 20.2505L23.75 20.2505L23.75 21.0294L25 21.0294L25 22.5871L26.25 22.5871L26.25 23.366L27.5 23.366L27.5 24.9237L28.75 24.9237L28.75 25.7026L30 25.7026L30 26.4815L26.25 26.4815L26.25 24.9237L25 24.9237L25 24.1449L23.75 24.1449L23.75 22.5871L22.5 22.5871L22.5 21.8083L21.25 21.8083L21.25 20.2505L20 20.2505L20 19.4717L18.75 19.4717L18.75 17.9139L17.5 17.9139L17.5 17.1351L16.25 17.1351L16.25 16.3562L15 16.3562L15 15.5773L13.75 15.5773L13.75 17.1351L12.5 17.1351L12.5 18.6928L11.25 18.6928L11.25 19.4717L10 19.4717L10 21.0294L8.75 21.0294L8.75 21.8083L7.50001 21.8083L7.50001 23.366L6.25 23.366L6.25 24.1449L5 24.1449L5 24.9237L3.75001 24.9237L3.75001 26.4815L2.02321e-06 26.4815L1.9042e-06 25.7026L1.25001 25.7026L1.25001 24.9237L2.50001 24.9237L2.50001 23.366L3.75001 23.366L3.75001 22.5871L5 22.5871L5 21.0294L6.25 21.0294L6.25 19.4717L7.5 19.4717L7.5 18.6928L8.75 18.6928L8.75 17.1351L10 17.1351L10 16.3562L11.25 16.3562L11.25 14.7985L12.5 14.7985L12.5 14.0196L13.75 14.0196L13.75 13.2407L16.25 13.2407Z" fill="white"/>
</svg>
